STARTFONT 2.3
FONT -FontForge-Tangerine-Book-R-Normal--18-180-72-72-P-66-ISO10646-1
SIZE 18 72 72  4
FONTBOUNDINGBOX 30 21 -6 -6
COMMENT "Generated by fontforge, http://fontforge.sourceforge.net"
COMMENT "Copyright (c) 2010 by Toshi Omagari. All rights reserved."
STARTPROPERTIES 40
FOUNDRY "FontForge"
FAMILY_NAME "Tangerine"
WEIGHT_NAME "Book"
SLANT "R"
SETWIDTH_NAME "Normal"
ADD_STYLE_NAME ""
PIXEL_SIZE 18
POINT_SIZE 180
RESOLUTION_X 72
RESOLUTION_Y 72
SPACING "P"
AVERAGE_WIDTH 66
CHARSET_REGISTRY "ISO10646"
CHARSET_ENCODING "1"
FONTNAME_REGISTRY ""
CHARSET_COLLECTIONS "ISO10646-1"
BITS_PER_PIXEL 4
FONT_NAME "Tangerine-Regular"
FACE_NAME "Tangerine Regular"
COPYRIGHT "Copyright (c) 2010 by Toshi Omagari. All rights reserved."
FONT_VERSION "1.3"
FONT_ASCENT 13
FONT_DESCENT 5
UNDERLINE_POSITION -2
UNDERLINE_THICKNESS 1
X_HEIGHT 4
CAP_HEIGHT 11
RAW_ASCENT 750
RAW_DESCENT 250
NORM_SPACE 3
RELATIVE_WEIGHT 40
RELATIVE_SETWIDTH 50
SUPERSCRIPT_X 0
SUPERSCRIPT_Y 8
SUPERSCRIPT_SIZE 11
SUBSCRIPT_X 0
SUBSCRIPT_Y 2
SUBSCRIPT_SIZE 11
AVG_LOWERCASE_WIDTH 43
AVG_UPPERCASE_WIDTH 127
ENDPROPERTIES
CHARS 233
STARTCHAR space
ENCODING 32
SWIDTH 150 0
DWIDTH 3 0
BBX 1 1 0 0
BITMAP
00
ENDCHAR
STARTCHAR exclam
ENCODING 33
SWIDTH 189 0
DWIDTH 3 0
BBX 5 10 1 0
BITMAP
000020
000760
000B00
003700
007100
006000
041000
050000
000000
A00000
ENDCHAR
STARTCHAR quotedbl
ENCODING 34
SWIDTH 214 0
DWIDTH 4 0
BBX 4 3 1 5
BITMAP
0303
3773
6240
ENDCHAR
STARTCHAR numbersign
ENCODING 35
SWIDTH 289 0
DWIDTH 5 0
BBX 6 6 0 0
BITMAP
003351
007060
07FFF6
052600
3DE620
241000
ENDCHAR
STARTCHAR dollar
ENCODING 36
SWIDTH 269 0
DWIDTH 5 0
BBX 5 10 0 -2
BITMAP
000010
000130
004760
029530
00C200
004800
611900
88A300
040000
010000
ENDCHAR
STARTCHAR percent
ENCODING 37
SWIDTH 388 0
DWIDTH 7 0
BBX 7 9 0 -2
BITMAP
00000140
09E10700
63625100
80233520
22155280
00625150
0421A500
15000000
10000000
ENDCHAR
STARTCHAR ampersand
ENCODING 38
SWIDTH 507 0
DWIDTH 9 0
BBX 9 9 0 0
BITMAP
0006E20000
0017530000
0043200000
0032100000
0189002990
280B116000
8206A60000
8400C70010
1A8639A830
ENDCHAR
STARTCHAR quotesingle
ENCODING 39
SWIDTH 120 0
DWIDTH 2 0
BBX 2 3 1 4
BITMAP
1A
61
20
ENDCHAR
STARTCHAR parenleft
ENCODING 40
SWIDTH 250 0
DWIDTH 5 0
BBX 5 14 1 -2
BITMAP
000030
000430
002600
009100
028000
083000
0B0000
1A0000
370000
460000
450000
340000
150000
040000
ENDCHAR
STARTCHAR parenright
ENCODING 41
SWIDTH 276 0
DWIDTH 5 0
BBX 5 14 0 -2
BITMAP
000110
000050
000070
000080
000090
0000A0
000280
000560
000910
000A00
005400
008000
062000
230000
ENDCHAR
STARTCHAR asterisk
ENCODING 42
SWIDTH 188 0
DWIDTH 3 0
BBX 4 3 0 4
BITMAP
0170
0641
1220
ENDCHAR
STARTCHAR plus
ENCODING 43
SWIDTH 301 0
DWIDTH 5 0
BBX 4 5 1 0
BITMAP
0050
0250
EFFC
1700
0500
ENDCHAR
STARTCHAR comma
ENCODING 44
SWIDTH 112 0
DWIDTH 2 0
BBX 2 2 0 -1
BITMAP
27
41
ENDCHAR
STARTCHAR hyphen
ENCODING 45
SWIDTH 245 0
DWIDTH 4 0
BBX 3 1 0 2
BITMAP
2620
ENDCHAR
STARTCHAR period
ENCODING 46
SWIDTH 112 0
DWIDTH 2 0
BBX 2 1 0 0
BITMAP
45
ENDCHAR
STARTCHAR slash
ENCODING 47
SWIDTH 210 0
DWIDTH 4 0
BBX 8 13 -1 -1
BITMAP
00000002
00000015
00000060
00000330
00000600
00005100
00015000
00060000
00240000
00600000
03300000
06000000
32000000
ENDCHAR
STARTCHAR zero
ENCODING 48
SWIDTH 349 0
DWIDTH 6 0
BBX 5 6 1 0
BITMAP
03CE70
2701C0
700090
800060
B00320
7A7200
ENDCHAR
STARTCHAR one
ENCODING 49
SWIDTH 189 0
DWIDTH 3 0
BBX 5 6 0 0
BITMAP
0ADD10
009500
01B000
065000
0B0000
290000
ENDCHAR
STARTCHAR two
ENCODING 50
SWIDTH 277 0
DWIDTH 5 0
BBX 5 6 0 0
BITMAP
006A80
0500B0
000170
001600
034000
6AA830
ENDCHAR
STARTCHAR three
ENCODING 51
SWIDTH 253 0
DWIDTH 5 0
BBX 6 9 -1 -3
BITMAP
0036A5
001029
000063
004930
0023C0
0000A2
0000A0
612940
9EB300
ENDCHAR
STARTCHAR four
ENCODING 52
SWIDTH 363 0
DWIDTH 7 0
BBX 9 10 0 0
BITMAP
0000000010
0000002810
000003B100
0000446000
0004090000
0050270000
0841824000
258DFD3000
0003800000
0009200000
ENDCHAR
STARTCHAR five
ENCODING 53
SWIDTH 250 0
DWIDTH 5 0
BBX 8 10 -2 -3
BITMAP
00000011
0000ACA1
00022000
00060000
0009C100
00009800
00000B00
00002800
2303A100
0CE91000
ENDCHAR
STARTCHAR six
ENCODING 54
SWIDTH 296 0
DWIDTH 5 0
BBX 8 9 0 0
BITMAP
00003BE7
00068216
00460000
01900000
0765A000
0A008300
09009100
1A016000
0A950000
ENDCHAR
STARTCHAR seven
ENCODING 55
SWIDTH 326 0
DWIDTH 6 0
BBX 8 9 -1 -3
BITMAP
002DFEC7
00520161
00200240
00000500
00006000
00072000
00640000
03900000
1A100000
ENDCHAR
STARTCHAR eight
ENCODING 56
SWIDTH 305 0
DWIDTH 5 0
BBX 7 9 0 0
BITMAP
00026600
00160750
00560530
001C4500
0046C000
07208600
28003700
39005200
0A953000
ENDCHAR
STARTCHAR nine
ENCODING 57
SWIDTH 304 0
DWIDTH 5 0
BBX 7 9 -1 -3
BITMAP
0006CC10
00430950
00800740
01800A20
02C15D00
00BE9700
00006100
31273000
6EB30000
ENDCHAR
STARTCHAR colon
ENCODING 58
SWIDTH 156 0
DWIDTH 3 0
BBX 3 5 0 0
BITMAP
0540
0000
0000
0000
6300
ENDCHAR
STARTCHAR semicolon
ENCODING 59
SWIDTH 156 0
DWIDTH 3 0
BBX 3 7 0 -2
BITMAP
0540
0000
0000
0100
4600
4200
2000
ENDCHAR
STARTCHAR less
ENCODING 60
SWIDTH 301 0
DWIDTH 5 0
BBX 5 4 1 1
BITMAP
000310
277300
940000
035100
ENDCHAR
STARTCHAR equal
ENCODING 61
SWIDTH 301 0
DWIDTH 5 0
BBX 6 3 0 1
BITMAP
0AFFF1
000000
3FFF90
ENDCHAR
STARTCHAR greater
ENCODING 62
SWIDTH 301 0
DWIDTH 5 0
BBX 4 4 1 1
BITMAP
2100
1971
0057
1000
ENDCHAR
STARTCHAR question
ENCODING 63
SWIDTH 285 0
DWIDTH 5 0
BBX 6 9 1 0
BITMAP
0027B5
00501C
000009
000064
002520
053000
0B1000
000000
A00000
ENDCHAR
STARTCHAR at
ENCODING 64
SWIDTH 492 0
DWIDTH 9 0
BBX 9 9 0 -2
BITMAP
0008DFA100
00A6114800
0631CD4500
0809460410
0717160900
17376CB900
0A1D3FB100
0760012200
007A863000
ENDCHAR
STARTCHAR A
ENCODING 65
SWIDTH 996 0
DWIDTH 18 0
BBX 18 12 0 0
BITMAP
0000000000689AB961
00000000040000039D
0000000021000003B3
000000003000003940
000000000000038140
000000000000270500
000000000B82600700
0000000003AFFEE900
030000000033001800
060000000520003700
1B1000155000003A03
06CA87610000001C91
ENDCHAR
STARTCHAR B
ENCODING 66
SWIDTH 638 0
DWIDTH 11 0
BBX 12 13 0 0
BITMAP
000000000300
00000357FC60
0000400A14D6
00030065004B
000000A00019
000002900051
00000641AA10
00000A0007B0
0000180000C2
000071000084
394630000092
05B300000280
001675445500
ENDCHAR
STARTCHAR C
ENCODING 67
SWIDTH 557 0
DWIDTH 10 0
BBX 11 12 1 0
BITMAP
000044568A20
002500000530
016000000200
090000000000
380000000000
840000000000
A30000000000
B30000000000
A50000001000
5C0000005000
0A6000054000
006855780000
ENDCHAR
STARTCHAR D
ENCODING 68
SWIDTH 799 0
DWIDTH 14 0
BBX 15 13 0 0
BITMAP
0000000000011000
00003689B7530000
000320000BE30000
000400004A5E4000
00200000B204D100
00000002A0007800
0000000740001D00
0000000B00000930
0000003800000740
0000008100000720
0000026000000700
168AAB1000004300
5743348987652000
ENDCHAR
STARTCHAR E
ENCODING 69
SWIDTH 494 0
DWIDTH 9 0
BBX 9 12 1 0
BITMAP
0000445960
0006100070
000B000010
0008910000
0017E80000
0373000000
2700000000
9200000000
D000000100
D100000500
8700007200
0875564000
ENDCHAR
STARTCHAR F
ENCODING 70
SWIDTH 626 0
DWIDTH 11 0
BBX 15 12 0 0
BITMAP
0000003689852000
000003200009FFE0
00000300006B1220
0000000000C10000
0000000002900000
0000000007400000
000000CFFFEC0000
000000000A000000
0300000054000000
1700000170000000
0B00001600000000
05B9764000000000
ENDCHAR
STARTCHAR G
ENCODING 71
SWIDTH 571 0
DWIDTH 10 0
BBX 14 15 -1 -3
BITMAP
0000000017CEC1
00000003A51077
00000038000024
00000190000020
00000820000000
00000B00000000
00004900000000
00006800005000
0000490003B000
01000A41286000
260000110A0000
82000000450000
93000001700000
59000016000000
06864430000000
ENDCHAR
STARTCHAR H
ENCODING 72
SWIDTH 865 0
DWIDTH 16 0
BBX 21 13 0 0
BITMAP
0000000000000000004950
0000005788A30000053150
0000050002500000500000
0000040009000005100000
0000010037000015000000
0000000082000081000000
00000000B0000180000000
0004ADEFECA85830000000
01A941046358CFA0000000
0830000800000A00000000
0800003400002800000000
1800024000005722000000
0787530000003D50000000
ENDCHAR
STARTCHAR I
ENCODING 73
SWIDTH 554 0
DWIDTH 10 0
BBX 13 12 1 0
BITMAP
0000000006BB20
00000002B85000
0000002A133000
00000080080000
00000330080000
00000400440000
00000300800000
01000101600000
42000036200000
90000073000000
D4114940000000
3DED8200000000
ENDCHAR
STARTCHAR J
ENCODING 74
SWIDTH 634 0
DWIDTH 11 0
BBX 15 15 0 -3
BITMAP
0000000000029C60
00000000008B6200
0000000008605000
0000000055025000
0000000070071000
0000000050080000
0000000030160000
0000100010510000
0023200015710000
0320000008200000
4300000028000000
8000000190000000
A000001910000000
B61037A100000000
2CFDA40000000000
ENDCHAR
STARTCHAR K
ENCODING 75
SWIDTH 936 0
DWIDTH 17 0
BBX 18 12 0 0
BITMAP
0000003789A910069A
000004300043026104
000013000080250000
000030000551400000
000030000925000000
000030000B63000000
000000000A37000000
01200000460B000000
07000000710A200000
190000024003900000
0C0000240000A50010
05B8653000001AA710
ENDCHAR
STARTCHAR L
ENCODING 76
SWIDTH 657 0
DWIDTH 12 0
BBX 13 12 0 0
BITMAP
0000000001AEA0
000000001821B0
00000000700050
00000003500000
00000008000000
00000009000000
00000055000000
00000091000000
00000180000000
06984720000100
5536CD73115200
3954339DFC4000
ENDCHAR
STARTCHAR M
ENCODING 77
SWIDTH 1219 0
DWIDTH 22 0
BBX 24 12 0 0
BITMAP
0000000026789A8410000181
0000000230000039A0003C30
000000030000000B10049600
000000020000006800478100
000000000000038303817000
000000000000177019072000
033000000000818091090000
080000000007236830190000
1A0000000062076600370000
0C0000001720099000470000
0980000571000C30003A0300
019CA98200000900000C9100
ENDCHAR
STARTCHAR N
ENCODING 78
SWIDTH 990 0
DWIDTH 18 0
BBX 23 12 0 0
BITMAP
000000479B63000000006CA0
00000220006D100000055050
00000000000BB00000160000
000000000006890000600000
0000000000330C4002400000
00000000006003C006000000
01100000006000A406000000
060000000510004A24000000
070000001600000C50000000
1A00000070000008A0000000
0A70003810000003A0000000
019DCB600000000060000000
ENDCHAR
STARTCHAR O
ENCODING 79
SWIDTH 606 0
DWIDTH 11 0
BBX 11 12 1 0
BITMAP
00005BEEA100
001962029C00
008100000B50
071000000490
1700000001A0
630000000190
910000000360
B10000000710
940000001700
6C0000018000
0CC411591000
019EEC600000
ENDCHAR
STARTCHAR P
ENCODING 80
SWIDTH 783 0
DWIDTH 14 0
BBX 16 13 0 0
BITMAP
0000000000003100
00000000367CE910
00000003302819D1
0000002100820097
000000200090003A
0000012003700029
0000000007200054
0000000038000170
0110000026334400
0400000050000000
1600000220000000
0900001200000000
03A8752000000000
ENDCHAR
STARTCHAR Q
ENCODING 81
SWIDTH 563 0
DWIDTH 10 0
BBX 13 15 1 -3
BITMAP
00013347400000
00220000940000
014000002B0000
060000000D0000
070000000C0000
180000000B0000
18000000560000
0B000000A00000
04A61008200000
00000172000000
22135500000000
48E70000000000
0017C600000000
000019D8311540
00000029DFD500
ENDCHAR
STARTCHAR R
ENCODING 82
SWIDTH 854 0
DWIDTH 15 0
BBX 16 13 0 0
BITMAP
0000000000023000
00000000458ED600
0000002300B13D40
0000012005600490
000000000B100190
000000001B000330
0000000057000100
00000000A2A10000
01100001A0A10000
0400000630750000
15000017001B0000
18000160000A4001
06A874000001AA60
ENDCHAR
STARTCHAR S
ENCODING 83
SWIDTH 480 0
DWIDTH 9 0
BBX 10 12 0 0
BITMAP
000001AEC1
0000082076
0000080033
00000A0000
0000074000
000000B100
0000003900
0010000A10
0700000740
1900000620
0C20001600
03A8654000
ENDCHAR
STARTCHAR T
ENCODING 84
SWIDTH 577 0
DWIDTH 10 0
BBX 15 12 0 0
BITMAP
000002AEFEDA7400
0000472012478850
0001400000030000
0004000000600000
0003000002600000
0000000008100000
0000000009000000
0000000045000000
0400000080000000
1800000430000000
0C10003400000000
05B9862000000000
ENDCHAR
STARTCHAR U
ENCODING 85
SWIDTH 752 0
DWIDTH 14 0
BBX 15 12 1 0
BITMAP
00479AB500000B10
0420004100006600
220004100000B000
4000240000057000
30006000000C1000
30035000005B0000
1007100000A60000
000A000006A20000
000B000034B00000
001B000270B00000
000E315800B03000
0007ED6000C91000
ENDCHAR
STARTCHAR V
ENCODING 86
SWIDTH 661 0
DWIDTH 12 0
BBX 13 12 1 0
BITMAP
0068A60001CB00
04100840031A60
130000A0000370
40000090000350
20000072000510
00000063000500
00000062003100
00000081022000
00000080330000
00000084300000
000002C3000000
00000530000000
ENDCHAR
STARTCHAR W
ENCODING 87
SWIDTH 822 0
DWIDTH 15 0
BBX 16 12 1 0
BITMAP
017AD500000000A7
05002D100071010B
3000074008200009
400003504B000017
100002518A000061
000002471A000170
000003450B000810
000004700B007200
000006400A054000
00000A000A460000
0000350009900000
0000600008100000
ENDCHAR
STARTCHAR X
ENCODING 88
SWIDTH 813 0
DWIDTH 15 0
BBX 15 12 1 0
BITMAP
000005D10005BE20
0000248500740620
0000203807200300
0000001A33000000
0000000A60000000
0000000A10000000
0000000B30000000
0000005580000000
10000140D0000000
6000150078000100
B00260001D713300
BDA6000002BE8000
ENDCHAR
STARTCHAR Y
ENCODING 89
SWIDTH 662 0
DWIDTH 12 0
BBX 16 14 0 -2
BITMAP
0000005B40000037
00000315600000A2
0000000730000390
0000000A00000A20
0000000900004900
000000450001C100
0003008100086000
0341009000680000
440000C228620000
9000008EB3200000
B000000003000000
A300000041000000
3D41026700000000
04DFD93000000000
ENDCHAR
STARTCHAR Z
ENCODING 90
SWIDTH 625 0
DWIDTH 11 0
BBX 12 12 1 0
BITMAP
000019EEB623
000073015AD3
000220000000
000200000000
000000010000
000000100000
000002000000
000020000000
000200000110
012000000500
09C841027200
5039DFEA2000
ENDCHAR
STARTCHAR bracketleft
ENCODING 91
SWIDTH 318 0
DWIDTH 6 0
BBX 7 13 1 -2
BITMAP
00096430
000B0000
001A0000
00470000
00830000
00A00000
00A00000
04700000
08300000
0B000000
0B000000
49000000
79410000
ENDCHAR
STARTCHAR backslash
ENCODING 92
SWIDTH 212 0
DWIDTH 4 0
BBX 4 13 0 -1
BITMAP
2000
5000
2300
0500
0500
0500
0500
0320
0050
0050
0060
0060
0031
ENDCHAR
STARTCHAR bracketright
ENCODING 93
SWIDTH 339 0
DWIDTH 6 0
BBX 7 13 0 -2
BITMAP
00015970
00000930
00000B00
00001A00
00004700
00007300
0000A000
0000A000
00037000
00073000
000B0000
000B0000
34680000
ENDCHAR
STARTCHAR asciicircum
ENCODING 94
SWIDTH 272 0
DWIDTH 5 0
BBX 4 4 1 3
BITMAP
0290
09C0
4574
6026
ENDCHAR
STARTCHAR underscore
ENCODING 95
SWIDTH 356 0
DWIDTH 6 0
BBX 7 2 -1 -1
BITMAP
00011110
1CB98740
ENDCHAR
STARTCHAR grave
ENCODING 96
SWIDTH 155 0
DWIDTH 3 0
BBX 3 3 0 5
BITMAP
1100
3500
0030
ENDCHAR
STARTCHAR a
ENCODING 97
SWIDTH 294 0
DWIDTH 5 0
BBX 6 5 0 0
BITMAP
01AFC1
093270
360820
666B10
4D3940
ENDCHAR
STARTCHAR b
ENCODING 98
SWIDTH 247 0
DWIDTH 4 0
BBX 10 14 0 0
BITMAP
00000047A4
0000032002
0000210000
0001200000
0003000000
0013000000
0050000000
0050000000
0430000000
078E200000
0C46400000
2905100000
5603000000
4A40000000
ENDCHAR
STARTCHAR c
ENCODING 99
SWIDTH 203 0
DWIDTH 4 0
BBX 4 5 0 0
BITMAP
0006
0300
3400
6412
3C50
ENDCHAR
STARTCHAR d
ENCODING 100
SWIDTH 285 0
DWIDTH 5 0
BBX 12 14 0 0
BITMAP
0000000006A5
000000006101
000000040000
000000220000
000000500000
000004200000
000007000000
000035000000
000080000000
019B90000000
091360000000
360930000000
643C10000000
4A3A50000000
ENDCHAR
STARTCHAR e
ENCODING 101
SWIDTH 206 0
DWIDTH 4 0
BBX 4 5 0 0
BITMAP
03C8
0715
4400
6401
3B60
ENDCHAR
STARTCHAR f
ENCODING 102
SWIDTH 156 0
DWIDTH 3 0
BBX 16 18 -6 -4
BITMAP
00000000000048B3
0000000000032013
0000000000230000
0000000000600000
0000000005200000
0000000008000000
0000000036000000
0000000091000000
00000000A0000000
0000004FFC400000
0000000640000000
0000000900000000
0000002800000000
0000007100000000
0000017000000000
0000061000000000
1100320000000000
1954100000000000
ENDCHAR
STARTCHAR g
ENCODING 103
SWIDTH 210 0
DWIDTH 4 0
BBX 7 9 -2 -4
BITMAP
00028A10
00233600
00547200
003E8000
00016000
0000A000
61006300
D411A200
4CFD6000
ENDCHAR
STARTCHAR h
ENCODING 104
SWIDTH 292 0
DWIDTH 5 0
BBX 10 14 0 0
BITMAP
000000158A
0000013003
0000030000
0000300000
0001300000
0004000000
0014000000
0050000000
0060000000
0339D00000
0783800000
0C35300000
2908100000
6309600000
ENDCHAR
STARTCHAR i
ENCODING 105
SWIDTH 149 0
DWIDTH 3 0
BBX 4 8 0 0
BITMAP
0004
0050
0000
0540
1900
1800
4510
5910
ENDCHAR
STARTCHAR j
ENCODING 106
SWIDTH 136 0
DWIDTH 2 0
BBX 10 12 -6 -4
BITMAP
0000000013
0000000050
0000000000
0000000530
0000001900
0000000800
0000004300
0000006000
0000024000
0000050000
2000310000
3753100000
ENDCHAR
STARTCHAR k
ENCODING 107
SWIDTH 259 0
DWIDTH 5 0
BBX 10 14 0 0
BITMAP
0000001689
0000013003
0000130000
0000300000
0003100000
0004000000
0041000000
0050000000
0240000000
067D500000
0A53300000
0A50000000
46A0000000
6258200000
ENDCHAR
STARTCHAR l
ENCODING 108
SWIDTH 134 0
DWIDTH 2 0
BBX 9 14 0 0
BITMAP
0000006C70
0000053020
0000320000
0000500000
0004000000
0015000000
0051000000
0070000000
0440000000
0800000000
0900000000
3700000000
6500000000
5610000000
ENDCHAR
STARTCHAR m
ENCODING 109
SWIDTH 413 0
DWIDTH 7 0
BBX 8 5 0 0
BITMAP
185B67D0
1882B380
0C258080
28091450
62180571
ENDCHAR
STARTCHAR n
ENCODING 110
SWIDTH 291 0
DWIDTH 5 0
BBX 6 5 0 0
BITMAP
1839C0
098380
0C2530
380801
720960
ENDCHAR
STARTCHAR o
ENCODING 111
SWIDTH 225 0
DWIDTH 4 0
BBX 4 5 0 0
BITMAP
02D9
071A
4307
6453
3E60
ENDCHAR
STARTCHAR p
ENCODING 112
SWIDTH 261 0
DWIDTH 5 0
BBX 6 9 -1 -4
BITMAP
004674
004127
005054
0443A0
0AEB10
090000
450000
720000
840000
ENDCHAR
STARTCHAR q
ENCODING 113
SWIDTH 269 0
DWIDTH 5 0
BBX 6 9 0 -4
BITMAP
019BB1
092050
460600
823700
697200
008000
018000
046000
068100
ENDCHAR
STARTCHAR r
ENCODING 114
SWIDTH 195 0
DWIDTH 4 0
BBX 5 5 0 0
BITMAP
1A5E20
088200
0A1000
090000
450000
ENDCHAR
STARTCHAR s
ENCODING 115
SWIDTH 188 0
DWIDTH 3 0
BBX 4 5 0 0
BITMAP
0654
0A11
0470
3090
8450
ENDCHAR
STARTCHAR t
ENCODING 116
SWIDTH 171 0
DWIDTH 3 0
BBX 4 8 0 0
BITMAP
0002
0072
0180
19E8
0A10
0A00
2710
1B40
ENDCHAR
STARTCHAR u
ENCODING 117
SWIDTH 299 0
DWIDTH 5 0
BBX 5 5 0 0
BITMAP
054080
180380
270B30
568920
4D2670
ENDCHAR
STARTCHAR v
ENCODING 118
SWIDTH 271 0
DWIDTH 5 0
BBX 5 5 0 0
BITMAP
2A3390
073070
090330
092500
2A4000
ENDCHAR
STARTCHAR w
ENCODING 119
SWIDTH 369 0
DWIDTH 7 0
BBX 7 5 0 0
BITMAP
3B041840
09190060
09780330
09591700
080CB100
ENDCHAR
STARTCHAR x
ENCODING 120
SWIDTH 263 0
DWIDTH 5 0
BBX 6 5 -1 0
BITMAP
00838C
004B54
002900
025900
1A3582
ENDCHAR
STARTCHAR y
ENCODING 121
SWIDTH 280 0
DWIDTH 5 0
BBX 9 9 -4 -4
BITMAP
0000054080
0000080290
0000160B40
0000468900
00004D3600
0000004200
0300005000
2600030000
0864310000
ENDCHAR
STARTCHAR z
ENCODING 122
SWIDTH 238 0
DWIDTH 4 0
BBX 6 5 -1 0
BITMAP
0079A2
000330
002300
024020
19A940
ENDCHAR
STARTCHAR braceleft
ENCODING 123
SWIDTH 291 0
DWIDTH 5 0
BBX 6 14 1 -2
BITMAP
000012
000651
001900
004500
006300
008100
035000
1B2000
055000
091000
190000
550000
650000
163000
ENDCHAR
STARTCHAR bar
ENCODING 124
SWIDTH 162 0
DWIDTH 3 0
BBX 1 16 1 -4
BITMAP
60
60
60
60
60
60
60
60
60
60
60
60
60
60
60
60
ENDCHAR
STARTCHAR braceright
ENCODING 125
SWIDTH 285 0
DWIDTH 5 0
BBX 6 14 0 -2
BITMAP
000210
000193
000056
000082
0000A0
000460
000660
0002A1
000800
003700
005400
008200
019000
451000
ENDCHAR
STARTCHAR asciitilde
ENCODING 126
SWIDTH 383 0
DWIDTH 7 0
BBX 6 2 1 2
BITMAP
3EA233
518E80
ENDCHAR
STARTCHAR space.dup1
ENCODING 160
SWIDTH 150 0
DWIDTH 3 0
BBX 1 1 0 0
BITMAP
00
ENDCHAR
STARTCHAR exclamdown
ENCODING 161
SWIDTH 189 0
DWIDTH 3 0
BBX 6 11 -2 -6
BITMAP
000064
000091
000000
000410
000600
003300
008000
027000
092000
2B0000
210000
ENDCHAR
STARTCHAR cent
ENCODING 162
SWIDTH 194 0
DWIDTH 3 0
BBX 4 10 0 -2
BITMAP
0001
0004
018A
1380
6450
9800
7A30
3100
4000
1000
ENDCHAR
STARTCHAR sterling
ENCODING 163
SWIDTH 344 0
DWIDTH 6 0
BBX 6 6 0 0
BITMAP
00017B
000603
004830
029100
147000
88AB83
ENDCHAR
STARTCHAR currency
ENCODING 164
SWIDTH 344 0
DWIDTH 6 0
BBX 7 6 0 0
BITMAP
04100410
0198A100
06005200
05004000
07434000
41005000
ENDCHAR
STARTCHAR yen
ENCODING 165
SWIDTH 309 0
DWIDTH 6 0
BBX 6 6 0 0
BITMAP
164035
007000
1CDF10
018000
5DFB00
064000
ENDCHAR
STARTCHAR brokenbar
ENCODING 166
SWIDTH 162 0
DWIDTH 3 0
BBX 1 16 1 -4
BITMAP
60
60
60
60
60
60
00
00
00
00
60
60
60
60
60
60
ENDCHAR
STARTCHAR section
ENCODING 167
SWIDTH 395 0
DWIDTH 7 0
BBX 10 15 -1 -5
BITMAP
0000002430
0000157495
0000560016
0003580011
0006490000
00065A0000
0004791000
0001A55000
0000B28000
000092A000
010064A000
6000457000
B000572000
8934830000
0354000000
ENDCHAR
STARTCHAR dieresis
ENCODING 168
SWIDTH 174 0
DWIDTH 3 0
BBX 3 1 0 6
BITMAP
7280
ENDCHAR
STARTCHAR copyright
ENCODING 169
SWIDTH 331 0
DWIDTH 6 0
BBX 5 5 1 2
BITMAP
037500
551550
643350
463010
123100
ENDCHAR
STARTCHAR ordfeminine
ENCODING 170
SWIDTH 226 0
DWIDTH 4 0
BBX 3 3 1 3
BITMAP
7A30
5010
3000
ENDCHAR
STARTCHAR guillemotleft
ENCODING 171
SWIDTH 289 0
DWIDTH 5 0
BBX 6 5 0 0
BITMAP
003364
043960
63D400
3BBF00
056F50
ENDCHAR
STARTCHAR logicalnot
ENCODING 172
SWIDTH 265 0
DWIDTH 5 0
BBX 5 4 0 2
BITMAP
001100
AEDE40
000810
000700
ENDCHAR
STARTCHAR registered
ENCODING 174
SWIDTH 331 0
DWIDTH 6 0
BBX 5 5 1 2
BITMAP
08AA10
646260
545140
656320
576300
ENDCHAR
STARTCHAR degree
ENCODING 176
SWIDTH 104 0
DWIDTH 2 0
BBX 3 2 1 5
BITMAP
3610
5800
ENDCHAR
STARTCHAR plusminus
ENCODING 177
SWIDTH 301 0
DWIDTH 5 0
BBX 5 5 0 0
BITMAP
000500
002500
0EFFC0
006000
469500
ENDCHAR
STARTCHAR twosuperior
ENCODING 178
SWIDTH 215 0
DWIDTH 4 0
BBX 3 3 1 3
BITMAP
2640
0420
6710
ENDCHAR
STARTCHAR threesuperior
ENCODING 179
SWIDTH 190 0
DWIDTH 3 0
BBX 3 3 0 3
BITMAP
0270
0180
1450
ENDCHAR
STARTCHAR acute
ENCODING 180
SWIDTH 157 0
DWIDTH 3 0
BBX 3 2 0 5
BITMAP
0940
2500
ENDCHAR
STARTCHAR mu
ENCODING 181
SWIDTH 324 0
DWIDTH 6 0
BBX 7 8 -1 -3
BITMAP
00080360
00440B10
00A05A00
02B46900
07A81B20
09000000
19000000
34000000
ENDCHAR
STARTCHAR paragraph
ENCODING 182
SWIDTH 392 0
DWIDTH 7 0
BBX 10 10 -2 -4
BITMAP
00000289B3
00005EE180
0001EFB440
0004FF7800
0002FF2800
00003C3400
0000187000
3100744000
9001930000
4958100000
ENDCHAR
STARTCHAR periodcentered
ENCODING 183
SWIDTH 112 0
DWIDTH 2 0
BBX 2 1 0 2
BITMAP
45
ENDCHAR
STARTCHAR cedilla
ENCODING 184
SWIDTH 115 0
DWIDTH 2 0
BBX 2 2 0 -2
BITMAP
05
23
ENDCHAR
STARTCHAR onesuperior
ENCODING 185
SWIDTH 174 0
DWIDTH 3 0
BBX 2 3 1 3
BITMAP
B6
40
50
ENDCHAR
STARTCHAR ordmasculine
ENCODING 186
SWIDTH 178 0
DWIDTH 3 0
BBX 2 3 1 3
BITMAP
89
40
51
ENDCHAR
STARTCHAR guillemotright
ENCODING 187
SWIDTH 276 0
DWIDTH 5 0
BBX 6 5 -1 0
BITMAP
039650
0095B2
002755
024430
243300
ENDCHAR
STARTCHAR onequarter
ENCODING 188
SWIDTH 435 0
DWIDTH 8 0
BBX 7 8 1 -1
BITMAP
00000100
16401600
07016000
25061130
71504A00
0427F600
33007000
50000000
ENDCHAR
STARTCHAR onehalf
ENCODING 189
SWIDTH 434 0
DWIDTH 8 0
BBX 7 8 1 -1
BITMAP
00000100
16401600
07017000
25063730
71512250
04202500
33068500
40000000
ENDCHAR
STARTCHAR threequarters
ENCODING 190
SWIDTH 476 0
DWIDTH 9 0
BBX 8 8 1 -1
BITMAP
00000010
14600340
16402500
00715061
53161460
00617830
05100700
23000000
ENDCHAR
STARTCHAR questiondown
ENCODING 191
SWIDTH 285 0
DWIDTH 5 0
BBX 6 10 -1 -5
BITMAP
00000A
00000A
000000
0000B0
000250
025200
360000
900000
C10500
5B8200
ENDCHAR
STARTCHAR Agrave
ENCODING 192
SWIDTH 996 0
DWIDTH 18 0
BBX 18 14 0 0
BITMAP
000000000000000120
000000000000000175
0000000000689AB961
00000000040000039D
0000000021000003B3
000000003000003940
000000000000038140
000000000000270500
000000000B82600700
0000000003AFFEE900
030000000033001800
060000000520003700
1B1000155000003A03
06CA87610000001C91
ENDCHAR
STARTCHAR Aacute
ENCODING 193
SWIDTH 996 0
DWIDTH 18 0
BBX 19 15 0 0
BITMAP
00000000000000000110
00000000000000000B40
00000000000000006300
0000000000689AB96100
00000000040000039D00
0000000021000003B300
00000000300000394000
00000000000003814000
00000000000027050000
000000000B8260070000
0000000003AFFEE90000
03000000003300180000
06000000052000370000
1B1000155000003A0300
06CA87610000001C9100
ENDCHAR
STARTCHAR Acircumflex
ENCODING 194
SWIDTH 996 0
DWIDTH 18 0
BBX 19 15 0 0
BITMAP
00000000000000000300
00000000000000008F90
00000000000000000000
0000000000689AB96100
00000000040000039D00
0000000021000003B300
00000000300000394000
00000000000003814000
00000000000027050000
000000000B8260070000
0000000003AFFEE90000
03000000003300180000
06000000052000370000
1B1000155000003A0300
06CA87610000001C9100
ENDCHAR
STARTCHAR Atilde
ENCODING 195
SWIDTH 996 0
DWIDTH 18 0
BBX 20 13 0 0
BITMAP
00000000000000016852
0000000000689AB96100
00000000040000039D00
0000000021000003B300
00000000300000394000
00000000000003814000
00000000000027050000
000000000B8260070000
0000000003AFFEE90000
03000000003300180000
06000000052000370000
1B1000155000003A0300
06CA87610000001C9100
ENDCHAR
STARTCHAR Adieresis
ENCODING 196
SWIDTH 996 0
DWIDTH 18 0
BBX 19 13 0 0
BITMAP
00000000000000003470
0000000000689AB96100
00000000040000039D00
0000000021000003B300
00000000300000394000
00000000000003814000
00000000000027050000
000000000B8260070000
0000000003AFFEE90000
03000000003300180000
06000000052000370000
1B1000155000003A0300
06CA87610000001C9100
ENDCHAR
STARTCHAR Aring
ENCODING 197
SWIDTH 996 0
DWIDTH 18 0
BBX 19 14 0 0
BITMAP
00000000000000000120
00000000000000000320
0000000000689AB96100
00000000040000039D00
0000000021000003B300
00000000300000394000
00000000000003814000
00000000000027050000
000000000B8260070000
0000000003AFFEE90000
03000000003300180000
06000000052000370000
1B1000155000003A0300
06CA87610000001C9100
ENDCHAR
STARTCHAR AE
ENCODING 198
SWIDTH 1271 0
DWIDTH 23 0
BBX 24 12 0 0
BITMAP
0000000000689AB962044596
00000000040000039D530007
0000000021000003B4A10001
000000003000003940590000
0000000000000380636A6000
000000000000270295000000
0000000007A3700660000000
0000000002AFFFFF10000000
030000000043000A00000010
060000001620000B10000050
1B1000155000000880000810
06CA87610000000198546400
ENDCHAR
STARTCHAR Ccedilla
ENCODING 199
SWIDTH 557 0
DWIDTH 10 0
BBX 11 14 1 -2
BITMAP
000034458A20
002400000520
025000000200
080000000000
370000000000
840000000000
A30000000000
B40000000000
980000004000
4F2000025000
07E6114B1000
0039C5300000
000050000000
000030000000
ENDCHAR
STARTCHAR Egrave
ENCODING 200
SWIDTH 463 0
DWIDTH 8 0
BBX 10 14 0 0
BITMAP
0000003000
0000005720
0000244791
0001600052
0006500010
0002C40000
0004BE1000
0175100000
0810000000
3800000000
6600000100
6800000500
2C10002700
0396457100
ENDCHAR
STARTCHAR Eacute
ENCODING 201
SWIDTH 463 0
DWIDTH 8 0
BBX 10 14 0 0
BITMAP
0000000220
0000004710
0000244791
0001600052
0006500010
0002C40000
0004BE1000
0175100000
0810000000
3800000000
6600000100
6800000500
2C10002700
0396457100
ENDCHAR
STARTCHAR Ecircumflex
ENCODING 202
SWIDTH 463 0
DWIDTH 8 0
BBX 10 15 0 0
BITMAP
0000001200
000002CE30
0000000000
0000244791
0001600052
0006500010
0002C40000
0004BE1000
0175100000
0810000000
3800000000
6600000100
6800000500
2C10002700
0396457100
ENDCHAR
STARTCHAR Edieresis
ENCODING 203
SWIDTH 463 0
DWIDTH 8 0
BBX 10 13 0 0
BITMAP
0000007340
0000244791
0001600052
0006500010
0002C40000
0004BE1000
0175100000
0810000000
3800000000
6600000100
6800000500
2C10002700
0396457100
ENDCHAR
STARTCHAR Igrave
ENCODING 204
SWIDTH 514 0
DWIDTH 9 0
BBX 13 14 0 0
BITMAP
00000000030000
00000000001000
0000000004AC40
00000001AA6100
0000000A305000
00000072062000
00000060090000
00000320180000
00000300530000
01000000700000
34000022500000
A0000047000000
97113870000000
1BEDA300000000
ENDCHAR
STARTCHAR Iacute
ENCODING 205
SWIDTH 514 0
DWIDTH 9 0
BBX 13 15 0 0
BITMAP
00000000001100
00000000039300
00000000010000
0000000004AC40
00000001AA6100
0000000A305000
00000072062000
00000060090000
00000320180000
00000300530000
01000000700000
34000022500000
A0000047000000
97113870000000
1BEDA300000000
ENDCHAR
STARTCHAR Icircumflex
ENCODING 206
SWIDTH 514 0
DWIDTH 9 0
BBX 13 15 0 0
BITMAP
00000000003000
0000000006FA00
00000000000000
0000000004AC40
00000001AA6100
0000000A305000
00000072062000
00000060090000
00000320180000
00000300530000
01000000700000
34000022500000
A0000047000000
97113870000000
1BEDA300000000
ENDCHAR
STARTCHAR Idieresis
ENCODING 207
SWIDTH 514 0
DWIDTH 9 0
BBX 13 13 0 0
BITMAP
00000000044700
0000000004AC40
00000001AA6100
0000000A305000
00000072062000
00000060090000
00000320180000
00000300530000
01000000700000
34000022500000
A0000047000000
97113870000000
1BEDA300000000
ENDCHAR
STARTCHAR Eth
ENCODING 208
SWIDTH 800 0
DWIDTH 14 0
BBX 15 13 0 0
BITMAP
0000000000011000
00003679A7640000
0003100009A30000
0003000054084000
00100000A000A100
0000000470002800
0000000920000B10
00000EFFEF300940
0000001910000740
0000007300000720
0000018000000600
15789A1000001200
5744346554311000
ENDCHAR
STARTCHAR Ntilde
ENCODING 209
SWIDTH 796 0
DWIDTH 14 0
BBX 23 13 -3 0
BITMAP
000000000000004863000000
00000168AA3300000001AD30
0000040002B7000000191040
00000000005D500000610000
000000000072D20002500000
0000000000704B0006000000
0000000001600A4015000000
02000000051003B051000000
23000000060000C360000000
700000005100005850000000
830000034000001D40000000
3C2001650000000A30000000
04CCB9200000000610000000
ENDCHAR
STARTCHAR Ograve
ENCODING 210
SWIDTH 608 0
DWIDTH 11 0
BBX 11 14 1 0
BITMAP
000002730000
000000000000
00005BEEA200
001962029D00
008100000A60
0610000003A0
1700000001B0
5300000000A0
910000000260
A20000000720
950000001700
5C0000018100
0CC411591000
019EEC600000
ENDCHAR
STARTCHAR Oacute
ENCODING 211
SWIDTH 608 0
DWIDTH 11 0
BBX 11 15 1 0
BITMAP
000000041000
000001650000
000000000000
00005BEEA200
001962029D00
008100000A60
0610000003A0
1700000001B0
5300000000A0
910000000260
A20000000720
950000001700
5C0000018100
0CC411591000
019EEC600000
ENDCHAR
STARTCHAR Ocircumflex
ENCODING 212
SWIDTH 608 0
DWIDTH 11 0
BBX 11 15 1 0
BITMAP
000000120000
000001584000
000000000000
00005BEEA200
001962029D00
008100000A60
0610000003A0
1700000001B0
5300000000A0
910000000260
A20000000720
950000001700
5C0000018100
0CC411591000
019EEC600000
ENDCHAR
STARTCHAR Otilde
ENCODING 213
SWIDTH 608 0
DWIDTH 11 0
BBX 11 13 1 0
BITMAP
000003840000
00005BEEA200
001962029D00
008100000A60
0610000003A0
1700000001B0
5300000000A0
910000000260
A20000000720
950000001700
5C0000018100
0CC411591000
019EEC600000
ENDCHAR
STARTCHAR Odieresis
ENCODING 214
SWIDTH 608 0
DWIDTH 11 0
BBX 11 14 1 0
BITMAP
000000752000
000000000000
00005BEEA200
001962029D00
008100000A60
0610000003A0
1700000001B0
5300000000A0
910000000260
A20000000720
950000001700
5C0000018100
0CC411591000
019EEC600000
ENDCHAR
STARTCHAR multiply
ENCODING 215
SWIDTH 301 0
DWIDTH 5 0
BBX 4 5 1 0
BITMAP
0618
0771
0650
1770
8050
ENDCHAR
STARTCHAR Oslash
ENCODING 216
SWIDTH 605 0
DWIDTH 11 0
BBX 11 13 1 -1
BITMAP
00005BED5400
001962037600
009100010730
072000000280
1800000001A0
630000000190
910000000370
B10000000820
A30000002900
69100001A100
1CC4015A2000
159DEC600000
200000000000
ENDCHAR
STARTCHAR Ugrave
ENCODING 217
SWIDTH 717 0
DWIDTH 13 0
BBX 15 14 0 0
BITMAP
0000000001000000
0000000004820000
00268AB900010750
0240002400001A00
0400014000007400
220006000000B000
3000420000077000
30008000001E2000
10026000007A0000
0007300003880000
000A100009640000
000B200082920000
0009813930A23100
0003DE92006C3000
ENDCHAR
STARTCHAR Uacute
ENCODING 218
SWIDTH 717 0
DWIDTH 13 0
BBX 15 14 0 0
BITMAP
0000000000011000
0000000000482000
00268AB900100750
0240002400001A00
0400014000007400
220006000000B000
3000420000077000
30008000001E2000
10026000007A0000
0007300003880000
000A100009640000
000B200082920000
0009813930A23100
0003DE92006C3000
ENDCHAR
STARTCHAR Ucircumflex
ENCODING 219
SWIDTH 718 0
DWIDTH 13 0
BBX 15 14 0 0
BITMAP
0000000000760000
0000000004293000
00268AB900000750
0240002400001A00
0400014000007400
220006000000B000
3000420000077000
30008000001E2000
10026000007A0000
0007300003880000
000A100009640000
000B200082920000
0009813930A23100
0003DE92006C3000
ENDCHAR
STARTCHAR Udieresis
ENCODING 220
SWIDTH 718 0
DWIDTH 13 0
BBX 15 13 0 0
BITMAP
0000000002570000
00268AB900000750
0240002400001A00
0400014000007400
220006000000B000
3000420000077000
30008000001E2000
10026000007A0000
0007300003880000
000A100009640000
000B200082920000
0009813930A23100
0003DE92006C3000
ENDCHAR
STARTCHAR Yacute
ENCODING 221
SWIDTH 662 0
DWIDTH 12 0
BBX 16 15 0 -2
BITMAP
0000000000037000
0000005B40000037
00000315600000A2
0000000730000390
0000000A00000A20
0000000900004900
000000450001C100
0003008100086000
0341009000680000
440000C228620000
9000008EB3200000
B000000003000000
A300000041000000
3D41026700000000
04DFD93000000000
ENDCHAR
STARTCHAR Thorn
ENCODING 222
SWIDTH 745 0
DWIDTH 13 0
BBX 15 12 0 0
BITMAP
0000000000003100
0000000000061000
0000000000450000
0000000045DE9100
0000000402B2BB00
0000001107601E10
000000000C200A10
021000003C000600
04000000A5013000
1600000349960000
0A10002400000000
03A9763000000000
ENDCHAR
STARTCHAR germandbls
ENCODING 223
SWIDTH 304 0
DWIDTH 5 0
BBX 16 17 -6 -4
BITMAP
0000000000036333
0000000000230039
0000000000200076
00000000000004C1
0000000012007C20
00000000402B9100
0000000052D50000
000000024B400000
0000000609000000
0000000705000000
0000001600500000
0000005101A00000
00000060BE700000
0000023000000000
0000030000000000
1000210000000000
6753100000000000
ENDCHAR
STARTCHAR agrave
ENCODING 224
SWIDTH 294 0
DWIDTH 5 0
BBX 6 8 0 0
BITMAP
000200
000610
000030
01AFC1
093270
360820
666B10
4D3940
ENDCHAR
STARTCHAR aacute
ENCODING 225
SWIDTH 294 0
DWIDTH 5 0
BBX 6 7 0 0
BITMAP
0000B1
000430
01AFC1
093270
360820
666B10
4D3940
ENDCHAR
STARTCHAR acircumflex
ENCODING 226
SWIDTH 294 0
DWIDTH 5 0
BBX 6 8 0 0
BITMAP
000430
002361
000000
01AFC1
093270
360820
666B10
4D3940
ENDCHAR
STARTCHAR atilde
ENCODING 227
SWIDTH 294 0
DWIDTH 5 0
BBX 6 7 0 0
BITMAP
004A23
0058C0
01AFC1
093270
360820
666B10
4D3940
ENDCHAR
STARTCHAR adieresis
ENCODING 228
SWIDTH 284 0
DWIDTH 5 0
BBX 6 7 0 0
BITMAP
003690
000000
01AFC1
093270
360820
666B10
4D3940
ENDCHAR
STARTCHAR aring
ENCODING 229
SWIDTH 294 0
DWIDTH 5 0
BBX 6 7 0 0
BITMAP
000340
000A30
01AFC1
093270
360820
666B10
4D3940
ENDCHAR
STARTCHAR ae
ENCODING 230
SWIDTH 363 0
DWIDTH 7 0
BBX 7 5 0 0
BITMAP
01ACBD50
08147330
35092000
633A1000
4B36A500
ENDCHAR
STARTCHAR ccedilla
ENCODING 231
SWIDTH 203 0
DWIDTH 4 0
BBX 4 8 0 -3
BITMAP
0106
0300
4400
6322
3C50
0500
0500
1000
ENDCHAR
STARTCHAR egrave
ENCODING 232
SWIDTH 206 0
DWIDTH 4 0
BBX 5 8 0 0
BITMAP
002000
005200
000210
03C800
071500
440000
640100
3B6000
ENDCHAR
STARTCHAR eacute
ENCODING 233
SWIDTH 206 0
DWIDTH 4 0
BBX 5 7 0 0
BITMAP
000940
002500
03C800
071500
440000
640100
3B6000
ENDCHAR
STARTCHAR ecircumflex
ENCODING 234
SWIDTH 206 0
DWIDTH 4 0
BBX 5 8 0 0
BITMAP
004300
023610
000000
03C800
071500
440000
640100
3B6000
ENDCHAR
STARTCHAR edieresis
ENCODING 235
SWIDTH 206 0
DWIDTH 4 0
BBX 5 7 0 0
BITMAP
009630
000000
03C800
071500
440000
640100
3B6000
ENDCHAR
STARTCHAR igrave
ENCODING 236
SWIDTH 149 0
DWIDTH 3 0
BBX 4 8 0 0
BITMAP
0110
0350
0003
0540
1900
1800
4510
5910
ENDCHAR
STARTCHAR iacute
ENCODING 237
SWIDTH 149 0
DWIDTH 3 0
BBX 4 7 0 0
BITMAP
001B
0051
0540
1900
1800
4510
5910
ENDCHAR
STARTCHAR icircumflex
ENCODING 238
SWIDTH 149 0
DWIDTH 3 0
BBX 4 8 0 0
BITMAP
0060
0435
0000
0540
1900
1800
4510
5910
ENDCHAR
STARTCHAR idieresis
ENCODING 239
SWIDTH 149 0
DWIDTH 3 0
BBX 4 7 0 0
BITMAP
0459
0000
0540
1900
1800
4510
5910
ENDCHAR
STARTCHAR eth
ENCODING 240
SWIDTH 234 0
DWIDTH 4 0
BBX 4 13 0 0
BITMAP
0100
2500
2800
0942
03B0
1354
0008
0008
029C
0706
3505
5413
3B50
ENDCHAR
STARTCHAR ntilde
ENCODING 241
SWIDTH 291 0
DWIDTH 5 0
BBX 6 7 0 0
BITMAP
004A23
0058C0
1839C0
098380
0C2530
380801
720960
ENDCHAR
STARTCHAR ograve
ENCODING 242
SWIDTH 225 0
DWIDTH 4 0
BBX 5 8 0 0
BITMAP
001100
003500
000030
02D900
071A00
430700
645300
3E6000
ENDCHAR
STARTCHAR oacute
ENCODING 243
SWIDTH 225 0
DWIDTH 4 0
BBX 5 7 0 0
BITMAP
000750
001500
02D900
071A00
430700
645300
3E6000
ENDCHAR
STARTCHAR ocircumflex
ENCODING 244
SWIDTH 225 0
DWIDTH 4 0
BBX 5 8 0 0
BITMAP
000600
004350
000000
02D900
071A00
430700
645300
3E6000
ENDCHAR
STARTCHAR otilde
ENCODING 245
SWIDTH 225 0
DWIDTH 4 0
BBX 5 7 0 0
BITMAP
00B450
034D50
02D900
071A00
430700
645300
3E6000
ENDCHAR
STARTCHAR odieresis
ENCODING 246
SWIDTH 225 0
DWIDTH 4 0
BBX 5 7 0 0
BITMAP
009630
000000
02D900
071A00
430700
645300
3E6000
ENDCHAR
STARTCHAR divide
ENCODING 247
SWIDTH 301 0
DWIDTH 5 0
BBX 4 5 1 0
BITMAP
0050
0000
5664
0000
0500
ENDCHAR
STARTCHAR oslash
ENCODING 248
SWIDTH 225 0
DWIDTH 4 0
BBX 5 7 0 -1
BITMAP
000120
02DB00
084B00
444600
671300
5A4000
200000
ENDCHAR
STARTCHAR ugrave
ENCODING 249
SWIDTH 299 0
DWIDTH 5 0
BBX 5 8 0 0
BITMAP
000200
000610
000030
054080
180380
270B30
568920
4D2670
ENDCHAR
STARTCHAR uacute
ENCODING 250
SWIDTH 299 0
DWIDTH 5 0
BBX 6 7 0 0
BITMAP
0000A3
000240
054080
180380
270B30
568920
4D2670
ENDCHAR
STARTCHAR ucircumflex
ENCODING 251
SWIDTH 299 0
DWIDTH 5 0
BBX 6 8 0 0
BITMAP
000330
001361
000000
054080
180380
270B30
568920
4D2670
ENDCHAR
STARTCHAR udieresis
ENCODING 252
SWIDTH 299 0
DWIDTH 5 0
BBX 6 7 0 0
BITMAP
002781
000000
054080
180380
270B30
568920
4D2670
ENDCHAR
STARTCHAR yacute
ENCODING 253
SWIDTH 280 0
DWIDTH 5 0
BBX 10 11 -4 -4
BITMAP
0000000084
0000000250
0000054080
0000080290
0000160B40
0000468900
00004D3600
0000004200
0300005000
2600030000
0864310000
ENDCHAR
STARTCHAR thorn
ENCODING 254
SWIDTH 261 0
DWIDTH 5 0
BBX 6 14 -1 -4
BITMAP
000010
0001A0
000070
000520
000800
003684
008127
006054
0643A0
09EB10
090000
350000
720000
840000
ENDCHAR
STARTCHAR ydieresis
ENCODING 255
SWIDTH 280 0
DWIDTH 5 0
BBX 9 11 -4 -4
BITMAP
0000003690
0000000000
0000054080
0000080290
0000160B40
0000468900
00004D3600
0000004200
0300005000
2600030000
0864310000
ENDCHAR
STARTCHAR dotlessi
ENCODING 305
SWIDTH 149 0
DWIDTH 3 0
BBX 3 5 0 0
BITMAP
0540
1900
1800
4510
5910
ENDCHAR
STARTCHAR Lslash
ENCODING 321
SWIDTH 657 0
DWIDTH 12 0
BBX 13 12 0 0
BITMAP
0000000001AEA0
000000001721B0
00000000600050
00000003300000
00000007340000
0000035E600000
00001256000000
00000092000000
000001A0000000
01343730000100
5502BD63115200
3EEB439DFC4000
ENDCHAR
STARTCHAR lslash
ENCODING 322
SWIDTH 134 0
DWIDTH 2 0
BBX 9 14 0 0
BITMAP
0000006B70
0000053020
0000320000
0000500000
0005000000
0017200000
0382000000
0070000000
0440000000
0800000000
0900000000
2700000000
6500000000
5610000000
ENDCHAR
STARTCHAR OE
ENCODING 338
SWIDTH 827 0
DWIDTH 15 0
BBX 15 12 1 0
BITMAP
00005BEEA2445860
00196202AE100070
008100000C000010
0610000009910000
1700000005E90000
6300000373000000
9100002800000000
B10000A200000000
940000D000000100
6C0000B100000500
0CC4018700007200
01AEEC6885564000
ENDCHAR
STARTCHAR oe
ENCODING 339
SWIDTH 345 0
DWIDTH 6 0
BBX 7 5 0 0
BITMAP
02D99D10
081D3500
44091000
621B0100
3A4A8300
ENDCHAR
STARTCHAR Scaron
ENCODING 352
SWIDTH 480 0
DWIDTH 9 0
BBX 10 15 0 0
BITMAP
0000002102
0000001950
0000000000
000001AEC1
0000082076
0000080033
00000A0000
0000074000
000000B100
0000003900
0010000A10
0700000740
1900000620
0C20001600
03A8654000
ENDCHAR
STARTCHAR scaron
ENCODING 353
SWIDTH 188 0
DWIDTH 3 0
BBX 4 8 0 0
BITMAP
0233
0015
0000
0654
0A11
0470
3090
8450
ENDCHAR
STARTCHAR Ydieresis
ENCODING 376
SWIDTH 662 0
DWIDTH 12 0
BBX 16 15 0 -2
BITMAP
0000000000536000
0000005B40000037
00000315600000A2
0000000730000390
0000000A00000A20
0000000900004900
000000450001C100
0003008100086000
0341009000680000
440000C228620000
9000008EB3200000
B000000003000000
A300000041000000
3D41026700000000
04DFD93000000000
ENDCHAR
STARTCHAR Zcaron
ENCODING 381
SWIDTH 625 0
DWIDTH 11 0
BBX 12 15 1 0
BITMAP
000000030100
000000039300
000000000000
000019EEB623
000073015AD3
000220000000
000200000000
000000010000
000000100000
000002000000
000020000000
000200000110
012000000500
09C841027200
5039DFEA2000
ENDCHAR
STARTCHAR zcaron
ENCODING 382
SWIDTH 248 0
DWIDTH 4 0
BBX 6 8 -1 0
BITMAP
000501
000060
000000
0079A2
000330
002300
023020
19A940
ENDCHAR
STARTCHAR florin
ENCODING 402
SWIDTH 214 0
DWIDTH 4 0
BBX 7 8 -2 -2
BITMAP
00004D70
00018000
00063000
004FD800
00190000
00070000
00510000
36300000
ENDCHAR
STARTCHAR circumflex
ENCODING 710
SWIDTH 196 0
DWIDTH 4 0
BBX 3 2 0 6
BITMAP
0520
2260
ENDCHAR
STARTCHAR caron
ENCODING 711
SWIDTH 196 0
DWIDTH 4 0
BBX 3 2 0 6
BITMAP
3220
0330
ENDCHAR
STARTCHAR breve
ENCODING 728
SWIDTH 198 0
DWIDTH 4 0
BBX 4 2 0 6
BITMAP
4011
0A70
ENDCHAR
STARTCHAR dotaccent
ENCODING 729
SWIDTH 89 0
DWIDTH 2 0
BBX 2 1 0 6
BITMAP
62
ENDCHAR
STARTCHAR ring
ENCODING 730
SWIDTH 117 0
DWIDTH 2 0
BBX 2 2 0 5
BITMAP
25
76
ENDCHAR
STARTCHAR ogonek
ENCODING 731
SWIDTH 124 0
DWIDTH 2 0
BBX 2 3 0 -3
BITMAP
33
73
01
ENDCHAR
STARTCHAR tilde
ENCODING 732
SWIDTH 222 0
DWIDTH 4 0
BBX 4 2 0 5
BITMAP
2C24
46D1
ENDCHAR
STARTCHAR hungarumlaut
ENCODING 733
SWIDTH 253 0
DWIDTH 5 0
BBX 5 2 0 5
BITMAP
0A5C10
457300
ENDCHAR
STARTCHAR mu.dup2
ENCODING 956
SWIDTH 324 0
DWIDTH 6 0
BBX 7 8 -1 -3
BITMAP
00080360
00440B10
00A05A00
02B46900
07A81B20
09000000
19000000
34000000
ENDCHAR
STARTCHAR endash
ENCODING 8211
SWIDTH 500 0
DWIDTH 9 0
BBX 9 1 0 2
BITMAP
9FEEEFFF80
ENDCHAR
STARTCHAR emdash
ENCODING 8212
SWIDTH 1000 0
DWIDTH 18 0
BBX 18 1 0 2
BITMAP
9FFFEEEEEEFFFFFFF8
ENDCHAR
STARTCHAR quoteleft
ENCODING 8216
SWIDTH 87 0
DWIDTH 2 0
BBX 2 4 1 4
BITMAP
01
50
A0
20
ENDCHAR
STARTCHAR quoteright
ENCODING 8217
SWIDTH 87 0
DWIDTH 2 0
BBX 2 4 1 4
BITMAP
12
36
41
10
ENDCHAR
STARTCHAR quotesinglbase
ENCODING 8218
SWIDTH 112 0
DWIDTH 2 0
BBX 2 1 0 0
BITMAP
26
ENDCHAR
STARTCHAR quotedblleft
ENCODING 8220
SWIDTH 167 0
DWIDTH 3 0
BBX 3 2 1 5
BITMAP
4340
9720
ENDCHAR
STARTCHAR quotedblright
ENCODING 8221
SWIDTH 167 0
DWIDTH 3 0
BBX 3 2 1 5
BITMAP
3690
4230
ENDCHAR
STARTCHAR quotedblbase
ENCODING 8222
SWIDTH 192 0
DWIDTH 3 0
BBX 3 2 0 -1
BITMAP
2790
4330
ENDCHAR
STARTCHAR dagger
ENCODING 8224
SWIDTH 185 0
DWIDTH 3 0
BBX 5 12 0 -2
BITMAP
000100
002500
006100
007000
6EEC30
024000
050000
050000
050000
230000
400000
300000
ENDCHAR
STARTCHAR daggerdbl
ENCODING 8225
SWIDTH 185 0
DWIDTH 3 0
BBX 6 12 -1 -2
BITMAP
000010
000260
000610
000700
02BFD4
002400
005000
005000
2BEC30
013000
040000
040000
ENDCHAR
STARTCHAR bullet
ENCODING 8226
SWIDTH 207 0
DWIDTH 4 0
BBX 2 2 1 2
BITMAP
AD
DB
ENDCHAR
STARTCHAR ellipsis
ENCODING 8230
SWIDTH 376 0
DWIDTH 7 0
BBX 7 1 0 0
BITMAP
45090720
ENDCHAR
STARTCHAR perthousand
ENCODING 8240
SWIDTH 571 0
DWIDTH 10 0
BBX 10 9 0 -2
BITMAP
0000014000
09E1060000
6362510000
8023352034
2215528439
0062515706
0421A50962
1500000000
1000000000
ENDCHAR
STARTCHAR guilsinglleft
ENCODING 8249
SWIDTH 189 0
DWIDTH 3 0
BBX 4 5 0 0
BITMAP
0033
0430
6300
3B00
0560
ENDCHAR
STARTCHAR guilsinglright
ENCODING 8250
SWIDTH 176 0
DWIDTH 3 0
BBX 4 5 -1 0
BITMAP
0390
0094
0027
0240
2400
ENDCHAR
STARTCHAR fraction
ENCODING 8260
SWIDTH 220 0
DWIDTH 4 0
BBX 7 8 -1 -1
BITMAP
00000010
00000340
00002500
00015000
00060000
00600000
05100000
23000000
ENDCHAR
STARTCHAR Euro
ENCODING 8364
SWIDTH 360 0
DWIDTH 6 0
BBX 6 6 0 0
BITMAP
001126
060001
6FFD00
1A1000
3A0000
071330
ENDCHAR
STARTCHAR trademark
ENCODING 8482
SWIDTH 389 0
DWIDTH 7 0
BBX 6 3 1 3
BITMAP
372624
513752
412322
ENDCHAR
STARTCHAR minus
ENCODING 8722
SWIDTH 301 0
DWIDTH 5 0
BBX 4 1 1 2
BITMAP
EFFC
ENDCHAR
STARTCHAR fi
ENCODING 64257
SWIDTH 297 0
DWIDTH 5 0
BBX 16 18 -6 -4
BITMAP
00000000000048B3
0000000000032013
0000000000230000
0000000000600000
0000000005200000
0000000008001000
0000000036051000
0000000091050000
00000000A0000000
0000003EFEE20000
0000001640500000
0000000A03400000
0000002808100000
0000007109500000
0000017000000000
0000061000000000
1100320000000000
1854100000000000
ENDCHAR
STARTCHAR fl
ENCODING 64258
SWIDTH 290 0
DWIDTH 5 0
BBX 18 18 -6 -4
BITMAP
0000000000002747C5
000000000004539102
000000000033031000
000000000060120000
000000000520400000
000000000802200000
000000004506000000
000000009125000000
000000009070000000
0000002DFEA0000000
000000174060000000
0000000A0430000000
000000270821000000
000000710880000000
000001700000000000
000006100000000000
110032000000000000
285410000000000000
ENDCHAR
STARTCHAR .notdef
ENCODING -1
SWIDTH 150 0
DWIDTH 3 0
BBX 1 1 0 0
BITMAP
00
ENDCHAR
STARTCHAR .null
ENCODING -1
SWIDTH 0 0
DWIDTH 0 0
BBX 1 1 0 0
BITMAP
00
ENDCHAR
STARTCHAR nonmarkingreturn
ENCODING -1
SWIDTH 150 0
DWIDTH 3 0
BBX 1 1 0 0
BITMAP
00
ENDCHAR
ENDFONT
